<svg id="face" xmlns="http://www.w3.org/2000/svg" viewBox="0 0 368 368"><defs><style>.cls-1{fill:#fff;}.cls-2{fill:#556166;}</style></defs><circle class="cls-1" cx="184" cy="184" r="184"/><path class="cls-2" d="M290.07,188.31c-.05-1-.11-2.1-.18-3.16a121.86,121.86,0,0,0,1.57-17.49c-.1-22-4.4-44.75-15.65-64a62.56,62.56,0,0,0-6.35-8.89,35.55,35.55,0,0,1,13.73,10.56c1.11-5.19-2.18-10.52-6.62-13.43s-9.81-3.94-15-4.89c4.26-.65,8.61.54,12.37-2a9.61,9.61,0,0,0,3.39-3.49c.56-1.11.28-3.56.82-4.31-4.4,6.17-11.59,8-18.71,8.49a21.48,21.48,0,0,0,.11-3.67c-1.15-19.54-30.35-27.86-46-31.2a133.75,133.75,0,0,0-38.23-2.62c-43.29,3.41-87.79,29-101.86,71.66-8.75,26.54-16.82,55.39-17.79,83.49-.78,22.5,3.82,45.78,16.75,64.21a50,50,0,0,1-3.86-24.87c-.57,5.62,5.73,15.13,9.27,19.19a246.84,246.84,0,0,0,17.28,18.6c9,8.38,18.89,15.21,28.6,22.63,6.27,4.78,18.76,8.36,20.75,17.06A67.08,67.08,0,0,0,131,292.8,115.93,115.93,0,0,0,163,299.69c-16-6.13-29.51-19.38-35.36-35.36a78.75,78.75,0,0,0,17.78,10,144.32,144.32,0,0,0,53.53,10.12,141.84,141.84,0,0,0,32.84-3.79c6.2,16.39,22.42,29.82,40.39,29.44-9.59-7.87-12.81-22.2-7.47-33.23a22.92,22.92,0,0,0,15.6,9.2c-10.5-8.06-9.44-18.87-5.71-29.67C286.44,241,291.54,218.51,290.07,188.31Zm-41,82.51c-30.64,12.91-69.79,12.83-102.18-.21a73.72,73.72,0,0,1-21.22-13,49.89,49.89,0,0,1-1-6.9,107.5,107.5,0,0,1-.16-12,10.93,10.93,0,0,0,2.78.38,9.14,9.14,0,0,0,6.61-2.8,2,2,0,0,0,0-2.81,2,2,0,0,0-2.82,0c-1.74,1.74-3.87,2.1-6.51,1.09-6.88-2.64-13.78-13.09-14-17.89-.39-7.27,5.58-17.53,12.46-18.46s13.1,8.44,16.88,25.76a2,2,0,0,0,.69,1.11l-.36.44a58.37,58.37,0,0,0,2.2,6.45c2.51,5.93,6.89,10.06,10,15.46-10.47-18.33-6.39-42.18,4.47-60.38a70.93,70.93,0,0,1,11.51-14.69l.78-.72c5.86-3.15,14-4.43,20.39-4.94a66.62,66.62,0,0,1,21.79,1.74c-3.09-1.8-5.68-4.57-9-6-4.13-1.8-9-1.5-13.35-1.48a33,33,0,0,0-8.88,1.22c.62-.54,1.24-1.08,1.84-1.63,6.83-4,13.56-8.19,20.11-12.33,13.57-8.56,26.55-18.33,37.47-30.13,5.27-5.69,12.06-13.14,16.23-21.17,13.89,12.24,19.74,28.05,24.39,49.69,3.47,16.15,5.36,29.46,6,41.88C288.26,233.1,276.5,259.26,249.06,270.82Zm2.28-56.44a8.2,8.2,0,0,1,1.6,10.11c-.77,1.29-3.37,4.54-9.83,4.54a28.77,28.77,0,0,1-8.73-1.55,2,2,0,0,1,1.22-3.8c8.15,2.62,12.54,1.08,13.92-1.24a4.24,4.24,0,0,0-1-5.2c-2.39-2.32-7.63-3.06-15.13,1.78a2,2,0,1,1-2.17-3.35C240.74,209.56,247.85,211,251.34,214.38Zm-117.91,6.44a2,2,0,0,1-2,2h0a2,2,0,0,1-2-2c0-1.54-.55-6.22-2.89-7.51-1.86-1-4.74.3-6.81,1.59a2,2,0,1,1-2.11-3.37c4.34-2.72,8-3.29,10.86-1.7C133.29,212.49,133.43,220,133.43,220.82ZM202,199.91a12.94,12.94,0,0,0,5.19-2.38,5.77,5.77,0,0,1-4.12,3.56,13.51,13.51,0,0,1,2.27,4.48c-5.31-6.8-15.75-3.51-21.28.31C188.62,196,197,195.11,202,199.91Zm66-3.35A13.08,13.08,0,0,0,273,194.2a5.81,5.81,0,0,1-4.32,3.62,14,14,0,0,1,1.14,3.76c-3.8-5.43-11.62-2.15-16.63-1C256,194.15,264,190.94,267.94,196.56Zm6.53-34.25c2.69,1.3,4.79,3.8,7.31,5.42A49.33,49.33,0,0,0,264,166.16c-5.51.49-12.51,1.73-17.32,4.9,1.37-1.87,2.15-4,3.81-5.63,3.5-3.33,8.63-4.42,13.07-4.45C267.17,161,271.11,160.68,274.47,162.31ZM253.59,239.7a39.77,39.77,0,0,0-1.22,6.65c-.05.55.07,5.78,1,5.36-3,1.34-4.17-.84-4.13-3.6-2-1-5-.35-6.92,0-8.11,1.31-16.63.66-24.64,2.35-.27,5.19-2.31,9.46-6.34,7.08,2.07-5.08,3.94-14.12,1.68-19.87,2.69.77,4.28,5.15,4.62,9.67a72.74,72.74,0,0,0,18.53,0c3.19-.37,6.35-1.24,9.52-1.58,2-.22,3.43.19,4.15-2.1.53-1.69.86-3.82,2.24-5.17C253.94,236.67,254,237.83,253.59,239.7Z"/></svg>