<svg id="Layer_1" data-name="Layer 1" xmlns="http://www.w3.org/2000/svg" viewBox="0 0 368 368"><defs><style>.cls-1{fill:#fff;}.cls-2{fill:#556166;}</style></defs><circle class="cls-1" cx="184" cy="184" r="184"/><path class="cls-1" d="M242.34,257.61a49.89,49.89,0,0,0,1-6.9,107.5,107.5,0,0,0,.16-12,10.93,10.93,0,0,1-2.78.38,9.14,9.14,0,0,1-6.61-2.8,2,2,0,0,1,0-2.81,2,2,0,0,1,2.82,0c1.74,1.74,3.87,2.1,6.51,1.09,6.88-2.64,13.78-13.09,14-17.89.39-7.27-5.58-17.53-12.46-18.46s-13.1,8.44-16.88,25.76a2.83,2.83,0,0,1-.14.41,14.16,14.16,0,0,1-.27,2.75,37.46,37.46,0,0,1-2.12,6.17c-2.51,5.93-6.89,10.06-10,15.46,10.47-18.33,6.39-42.18-4.47-60.38a72.21,72.21,0,0,0-9.52-12.68c-4.3-4.52-7.6-8.6-12.29-13.25-8-4.59-15.79-9.44-23.4-14.24-13.57-8.56-26.55-18.33-37.47-30.13-5.27-5.69-12.06-13.14-16.23-21.17C98.38,109.18,92.53,125,87.88,146.63c-3.47,16.15-5.36,29.46-6,41.88-2.17,44.59,9.59,70.75,37,82.31,30.64,12.91,69.79,12.83,102.18-.21A73.72,73.72,0,0,0,242.34,257.61Zm-2.84-47.78c2.87-1.59,6.52-1,10.86,1.7a2,2,0,1,1-2.11,3.37c-2.07-1.29-4.95-2.62-6.81-1.59-2.34,1.29-2.88,6-2.89,7.51a2,2,0,0,1-2,2h0a2,2,0,0,1-2-2C234.57,220,234.71,212.49,239.5,209.83ZM94.16,165.39A58.38,58.38,0,0,1,102,166.6c6.78,1.1,13.12,2.43,18.32,7.3-11.13-2.84-23.42-2-34.11-6.26C87,168,92.5,165.36,94.16,165.39Zm9.09,30.79a12.71,12.71,0,0,1,2.75-8.26,6.16,6.16,0,0,1-6.45-3.76,13,13,0,0,0,7.61,2.66,5.39,5.39,0,0,1,3.27-1.16c4,0,7.17,4.71,7.17,10.52s-3.21,10.52-7.17,10.52S103.25,202,103.25,196.18Zm11.81,28.31a8.2,8.2,0,0,1,1.6-10.11c3.49-3.38,10.6-4.82,20.07,1.29a2,2,0,0,1-2.17,3.35c-7.5-4.84-12.74-4.1-15.13-1.78a4.24,4.24,0,0,0-1,5.2c1.38,2.32,5.77,3.86,13.92,1.24a2,2,0,1,1,1.22,3.8,28.77,28.77,0,0,1-8.73,1.55C118.43,229,115.83,225.78,115.06,224.49Zm13.39,29.07c9.92,2.86,38.47,0,38.47,0C154.51,266.42,128.45,253.56,128.45,253.56Zm45.64-42c-4,0-7.17-4.71-7.17-10.52a12.76,12.76,0,0,1,2.74-8.26c-2.95,1-6.69-.44-7.75-3.48a13,13,0,0,0,8.23,2.66l.31,0a5.53,5.53,0,0,1,3.64-1.47c4,0,7.17,4.71,7.17,10.52S178.05,211.55,174.09,211.55Zm2.65-39.38a103.77,103.77,0,0,0-20.11,6c4.22-5.24,10.62-8.37,17.19-9.81,3.57-.79,20.26-1.89,20.9,1.5C189,171.85,182.63,171,176.74,172.17Z"/><path class="cls-2" d="M295.59,267.57c12.93-18.43,17.53-41.71,16.75-64.21-1-28.1-9-57-17.79-83.49C280.48,77.18,236,51.62,192.69,48.21a133.75,133.75,0,0,0-38.23,2.62c-15.63,3.34-44.83,11.66-46,31.2a21.45,21.45,0,0,0,.11,3.67c-10.3-.52-20.48-1.45-26.78,6.59A35.91,35.91,0,0,1,106.46,87c-5.22,1-10.59,2-15,4.89s-7.73,8.24-6.62,13.43A35.55,35.55,0,0,1,98.54,94.74a62.56,62.56,0,0,0-6.35,8.89c-11.25,19.28-15.55,42.07-15.65,64a121.86,121.86,0,0,0,1.57,17.49c-.07,1.06-.13,2.12-.18,3.16-1.47,30.2,3.63,52.73,15.5,68.06,3.73,10.8,4.79,21.61-5.71,29.67a22.92,22.92,0,0,0,15.6-9.2c5.34,11,2.12,25.36-7.47,33.23,18,.38,34.19-13.05,40.39-29.44a141.84,141.84,0,0,0,32.84,3.79,144.32,144.32,0,0,0,53.53-10.12,78.75,78.75,0,0,0,17.78-10c-5.85,16-19.4,29.23-35.36,35.36A115.93,115.93,0,0,0,237,292.8a67.08,67.08,0,0,0-13.43,27.38c2-8.7,14.48-12.28,20.75-17.06,9.71-7.42,19.65-14.25,28.6-22.63a246.84,246.84,0,0,0,17.28-18.6c3.54-4.06,9.84-13.57,9.27-19.19A50,50,0,0,1,295.59,267.57Zm-176.65,3.25c-27.44-11.56-39.2-37.72-37-82.31.61-12.42,2.5-25.73,6-41.88,4.65-21.64,10.5-37.45,24.39-49.69,4.17,8,11,15.48,16.23,21.17,10.92,11.8,23.9,21.57,37.47,30.13,5.67,3.58,11.23,7.36,17.14,10.53,7.81,4.19,12.6,10.69,18.55,17a72.21,72.21,0,0,1,9.52,12.68c10.86,18.2,14.94,42.05,4.47,60.38,2.14-3.75,5-7,7.35-10.61,5.89-9.1,5.62-20.33,10.2-30,2.13-4.46,6-10.81,11.83-10,6.88.93,12.85,11.19,12.46,18.46-.26,4.8-7.16,15.25-14,17.89-2.64,1-4.77.65-6.51-1.09a2,2,0,0,0-2.82,0,2,2,0,0,0,0,2.81,9.14,9.14,0,0,0,6.61,2.8,10.93,10.93,0,0,0,2.78-.38,107.5,107.5,0,0,1-.16,12,49.89,49.89,0,0,1-1,6.9,73.72,73.72,0,0,1-21.22,13C188.73,283.65,149.58,283.73,118.94,270.82Z"/><path class="cls-2" d="M128.45,253.56s26.06,12.86,38.47,0C166.92,253.56,138.37,256.42,128.45,253.56Z"/><path class="cls-2" d="M174.09,190.51a5.53,5.53,0,0,0-3.64,1.47l-.31,0a13,13,0,0,1-8.23-2.66c1.06,3,4.8,4.44,7.75,3.48a12.76,12.76,0,0,0-2.74,8.26c0,5.81,3.21,10.52,7.17,10.52s7.17-4.71,7.17-10.52S178.05,190.51,174.09,190.51Z"/><path class="cls-2" d="M117.6,196.18c0-5.81-3.21-10.52-7.17-10.52a5.39,5.39,0,0,0-3.27,1.16,13,13,0,0,1-7.61-2.66,6.16,6.16,0,0,0,6.45,3.76,12.71,12.71,0,0,0-2.75,8.26c0,5.81,3.22,10.52,7.18,10.52S117.6,202,117.6,196.18Z"/><path class="cls-2" d="M173.82,168.34c-6.57,1.44-13,4.57-17.19,9.81a103.77,103.77,0,0,1,20.11-6c5.89-1.13,12.3-.32,18-2.33C194.08,166.45,177.39,167.55,173.82,168.34Z"/><path class="cls-2" d="M102,166.6a58.38,58.38,0,0,0-7.83-1.21c-1.66,0-7.12,2.59-8,2.25,10.69,4.25,23,3.42,34.11,6.26C115.11,169,108.77,167.7,102,166.6Z"/><path class="cls-2" d="M133.62,227.48a2,2,0,1,0-1.22-3.8c-8.15,2.62-12.54,1.08-13.92-1.24a4.24,4.24,0,0,1,1-5.2c2.39-2.32,7.63-3.06,15.13,1.78a2,2,0,0,0,2.17-3.35c-9.47-6.11-16.58-4.67-20.07-1.29a8.2,8.2,0,0,0-1.6,10.11c.77,1.29,3.37,4.54,9.83,4.54A28.77,28.77,0,0,0,133.62,227.48Z"/><path class="cls-2" d="M236.56,222.81h0a2,2,0,0,0,2-2c0-1.54.55-6.22,2.89-7.51,1.86-1,4.74.3,6.81,1.59a2,2,0,1,0,2.11-3.37c-4.34-2.72-8-3.29-10.86-1.7-4.79,2.66-4.93,10.14-4.93,11A2,2,0,0,0,236.56,222.81Z"/></svg>