<svg id="cuppa" xmlns="http://www.w3.org/2000/svg" viewBox="0 0 368 368"><defs><style>.cls-1{fill:#fff;}.cls-2{fill:#5d686d;}</style></defs><circle class="cls-1" cx="184" cy="184" r="184"/><path class="cls-2" d="M347.59,288.21c0-.75-.46-1.82-1.35-2-13.53-2.76-27.37-2.25-40.9-4.91a2.43,2.43,0,0,0-3.14-1.64c-3.88,1.31-7.2,4.72-10,7.63-3.14,3.23-3.09,6.87-2.34,10.76a2.18,2.18,0,0,0-.56,2.15c.09.24.18.47.28.71-6.32,1.82-13,2.48-19.66,3-13.24,1-24.19-1.73-32-9.08,2.91-1.31,5.76-2.67,8.52-4.07a2.74,2.74,0,0,0,1.08-1.08c10.11-4,18.15-9.54,19.93-17.26,3.37-14.75-9-21.81-25.18-25.13a66.2,66.2,0,0,0,7.54-9.74c22,16.43,59,1.73,58.73-28.22-.19-23.82-28.22-39.82-47.18-27.23.33-5.2-3.22-10.3-13-14.37-17-7.06-35.84-7.72-54.19-7.58,10-10,26-15.3,39.64-18.43,1.83-.43,1.4-4.26-.56-3.94-2.81.52-5.71,1.17-8.61,2-12.83,3.6-25.88,10.25-33.74,20.4a34.58,34.58,0,0,0-7.3,23,.31.31,0,1,0,.61,0,31.19,31.19,0,0,1,5.06-17c7.43-.14,14.92,0,22.5.33,10.81.42,21.16,1.68,31.49,5,14,4.5,9.55,22.23-2.62,26.91-.8.29-1.59.61-2.43.85-1.88-.82-3.76-1.55-5.65-2.22a12.32,12.32,0,0,0-1.2-1c-2.71-1.44-6.06-1.88-9.07-2.18l-1.14-.12c-.68-.15-1.36-.32-2-.46-4.91-24.25-18.68-17.69-26.87-2.11a210.14,210.14,0,0,0-23,2.11c-12.87,1.82-25.82,4.58-38.69,6.92a.88.88,0,0,0-.61.38c-12.36-3.42-20.87-9.45-10.44-19.94a143,143,0,0,1,41.6-12.35c3.41,6.83,5.29,14.78,7,21.8.15.61.48.85.85.85a1.33,1.33,0,0,0,1.12-1.59,102.59,102.59,0,0,0-5.76-21.44A49.2,49.2,0,0,0,161,161c-5.53-9.69-14.14-16.56-27.94-17.55-15.54-1.12-21.9,3.84-35-11.18C84,115.91,94.48,102,106.88,91.86S135,77.44,149.05,70.14c19.41-10.11,24.33-32,51.46-16.52,20.13,11.47,49.8,31.36,34,58.31-12.82,21.9-86.48,29.77-92.42-.65-.93-4.68-6.36-2.06-5.57,2.1,5.81,29.67,49.93,27.52,76.69,19.7a80.74,80.74,0,0,0,11.84-4.3c13.71-6.37,23.31-23.82,19.09-38.84-6.4-22.75-27-34.73-46.46-45.82C172.86,30,161.87,55.59,142.16,65.84c-19.23,10-39.44,15.49-52.17,34.53-9.88,14.84-1.31,30.84,8.75,42.5,5.94,6.92,14.79,8.56,23.35,8.61,13.52.09,22.61-3.19,33.45,8.51a15,15,0,0,1,1.27,1.45c-15.16,1.64-30,5.81-38.93,16.66-3.7,3.65-5.57,6.93-6,9.92a1.62,1.62,0,0,0-.51,1.27c-.66,19.51,1.59,44.12,13.24,60.88a61,61,0,0,0-14,5.51c-5.2,3-10.07,7.43-10.73,13.71-.16,1.52.14,3,.08,4.48a9.29,9.29,0,0,0,.8,4.79c1.43,3,3.85,5.44,6.18,7.73a81.24,81.24,0,0,0,36.54,20.33c13.84,3.62,28.38,4.07,42.55,2.5a161.41,161.41,0,0,0,21.6-3.92q5.31-1.32,10.53-3c1-.31,9.72-3.86,10-3.5a60.64,60.64,0,0,1-5.21-6.59,122.26,122.26,0,0,1-22.63,1.55c-12.73-.42-25.64,1.92-38.46,2.29-3.56.1-77-10.66-53.72-32.15,4.4-4.06,12.63-6.64,20.73-8.37a51.67,51.67,0,0,0,10.86,9.36c-5.29,2.95-9.13,8.75-4.77,14.6,2.58,3.43,7,4.28,10.94,4.51,1.55.1,7.27,1.77,8.29.16.89-1.41-4.32-2.23-4.9-2.4-2.9-.81-5.77-1.74-8.67-2.56a6,6,0,0,1-4.73-5.56c-.19-3.46,3.46-5.85,6.36-7.16,11.93,7,26,8.94,41.46,8.8,14.5-.1,22.67-2,33.49-8.51-.24-2.19-.38-4.3-.52-6.41-10.81,6.65-19.45,8.18-33.11,8.93-20.4,1.12-35.94-4.77-47-15.26a52.06,52.06,0,0,1-5.16-5.52c-10.76-13.29-16.19-31.77-17-52.18,4.26,5,12.92,8.24,21.06,10.06a189.19,189.19,0,0,0,37.64,4.4c6.51.13,13-.05,19.52-.46s13.7-.37,19.89-2c0-4.88.16-9.6-2.26-14-1.34-2.46-3.48-2.8-6.39-3-1.06-.06-8.79-1-9.21-.22a44.85,44.85,0,0,1,7.16-9.51c11.27-11.42,15.62,24.5,16.15,30.42,1,10.92,1.18,21.91,1.78,32.86.09,1.68.18,3.41.27,5.1v.18c.15,2.72.28,5.66.47,8.7.14,2.11.28,4.22.52,6.42.82,8.56,2.47,17.38,6.48,24.32a66.48,66.48,0,0,0,8.39,9.58c14.62,11.37,37.59,11.75,55.6,4.75.52.75,1.08,1.5,1.54,2.29a28.73,28.73,0,0,0,4.41,6.37,1.49,1.49,0,0,0,2.47-.19,130.08,130.08,0,0,0,43.86,4.31,2,2,0,0,0,1.82-1.74C346.57,306,348.11,297.24,347.59,288.21Zm-221.57,7c23.63,10.07,49.79,4.5,74.4,3.51,4.35-.18,11-.75,18.35-1.82-36.32,12-79.18,13.8-108.71-9.92C115.26,290.6,121.44,293.27,126,295.23ZM260.28,195c3.83-1.5,7.44-2.62,12.12-2.39,8.56.37,13.52,6.27,13.52,14.55,0,15.45-16.85,14.61-28.41,13.44A87.9,87.9,0,0,0,260.28,195Zm18.57,28.83c8.28-2.63,10.95-10.77,11.14-18.63.28-14.74-17.74-22.23-30-16.9a5.86,5.86,0,0,0-.05-.93c.23-.47.42-.89.61-1.36,17.45-11.46,45.82,2.67,43.28,25.13-2.71,24.1-32.66,33.88-50.77,21a60.93,60.93,0,0,0,3.37-8C263.88,225.13,271.55,226,278.85,223.78Zm-55.41,26.53c-.13-1.78-.28-3.56-.37-5.34-.75-12.4-.84-25-2-37.29,3.28-.47,6.5-.94,9.68-1.5,7.21-1.26,16.05-5.48,22.41-10.91a2,2,0,0,0,1.65,1.64c-.28,17.13-4.63,31.17-17.74,47.27-.56.66-1.08,1.31-1.68,2A69.93,69.93,0,0,1,224,256.53C223.77,254.47,223.58,252.37,223.44,250.31ZM233.84,290A44.24,44.24,0,0,1,227,274.32a109.41,109.41,0,0,1-2.14-11.57,99,99,0,0,0,13.05-10.85c3.75.42,7.48,1,11.23,1.78,15.59,3.22,18.44,22.56,4.26,29.52-2,1-4.17,1.92-6.37,2.77s-4.49,1.64-6.83,2.38C238.1,289,236,289.57,233.84,290Zm108.1,22.13a131.37,131.37,0,0,1-43.76-4.82,36.43,36.43,0,0,1-2.25-4.11c-.18-.33-.33-.66-.51-1a55,55,0,0,0,8.09-4.68c.15,1.82.28,3.64.48,5.47a1.16,1.16,0,1,0,2.24-.42c-.47-2-.94-4.07-1.31-6.13a1.45,1.45,0,0,0-.38-2.15c-.18-1.17-.33-2.34-.42-3.56,0-.47-.61-.42-.66.05-.09,1.26-.09,2.52-.09,3.79a42.28,42.28,0,0,1-9.54,5,2.41,2.41,0,0,0-.37-.46A36.81,36.81,0,0,1,293,295c-.06-2.39,1.49-3.51,3.18-4.86,2.15-1.78,4.77-3.84,7.57-4.49a2,2,0,0,0,1.13-.66c8.94,1.83,18,2.43,27,3.23,6.09.56,12.36-.38,12.22,7C344.18,295.51,342.73,312.13,341.94,312.17Z" transform="translate(-0.05)"/></svg>